PathFileType  4	(X/Y/Z) C:\Users\antoi\Documents\MyRepositories\mobilecap\ResultsAnalysis
DataRate	CameraRate	NumFrames	NumMarkers	Units	OrigDataRate	OrigDataStartFrame	OrigNumFrames
100.0	100.0	7	51	mm	100.0	174	231
Frame#	Time	r_knee			r_shank_antsup			r_ankle			r_calc			r_5meta			r_toe			L_knee			L_shank_antsup			L_ankle			L_calc			L_5meta			L_toe			r_sh2			r_sh3			r_sh4			L_sh2			L_sh3			r_thigh1			r_thigh2			r_thigh3			r_thigh4			r_thigh5			L_thigh1			L_thigh2			L_thigh3			L_thigh4			r.ASIS			r.PSIS			L.ASIS			L.PSIS			C7			R_Shoulder			L_Shoulder			R_Sternum			L_Sternum			R_humerus			R_elbow_med			R_elbow_lat			R_forearm			R_wrist_radius			R_wrist_ulna			L_humerus			L_elbow_med			L_elbow_lat			L_forearm			L_wrist_radius			L_wrist_ulna			R_HJC			L_HJC			R_HJC_reg			L_HJC_reg			
		X1	Y1	Z1	X2	Y2	Z2	X3	Y3	Z3	X4	Y4	Z4	X5	Y5	Z5	X6	Y6	Z6	X7	Y7	Z7	X8	Y8	Z8	X9	Y9	Z9	X10	Y10	Z10	X11	Y11	Z11	X12	Y12	Z12	X13	Y13	Z13	X14	Y14	Z14	X15	Y15	Z15	X16	Y16	Z16	X17	Y17	Z17	X18	Y18	Z18	X19	Y19	Z19	X20	Y20	Z20	X21	Y21	Z21	X22	Y22	Z22	X23	Y23	Z23	X24	Y24	Z24	X25	Y25	Z25	X26	Y26	Z26	X27	Y27	Z27	X28	Y28	Z28	X29	Y29	Z29	X30	Y30	Z30	X31	Y31	Z31	X32	Y32	Z32	X33	Y33	Z33	X34	Y34	Z34	X35	Y35	Z35	X36	Y36	Z36	X37	Y37	Z37	X38	Y38	Z38	X39	Y39	Z39	X40	Y40	Z40	X41	Y41	Z41	X42	Y42	Z42	X43	Y43	Z43	X44	Y44	Z44	X45	Y45	Z45	X46	Y46	Z46	X47	Y47	Z47	X48	Y48	Z48	X49	Y49	Z49	X50	Y50	Z50	X51	Y51	Z51	

174	1.73000000	-114.26973	972.33080	-433.46443	-81.60157	872.94059	-435.34718	-188.71484	546.74250	-448.11752	-270.09447	561.13950	-506.88708	-149.64465	402.94802	-420.82195	-74.31552	400.08507	-470.18231	-80.86149	970.76034	-812.77387	-78.21761	883.23486	-834.91617	-151.98153	553.46158	-785.17951	-236.94378	571.19255	-728.04415	-117.96603	411.96604	-801.60020	-52.63929	398.50409	-740.52821	-113.49387	767.41712	-407.36509	-143.36759	901.60446	-400.50774	-190.62119	794.93602	-394.07841	-167.09698	899.56785	-825.27459	-175.39847	777.84511	-821.01921	-84.28941	1299.81443	-427.05226	-65.84641	1192.35763	-428.88925	-115.14650	1157.48703	-402.49061	-193.89558	1275.87271	-430.47956	-166.47616	1164.08787	-424.50206	-57.35788	1266.10460	-816.01378	-23.25873	1130.14120	-810.66986	-162.84567	1239.13009	-832.55290	-134.86271	1104.88724	-825.63731	-75.55704	1505.52473	-495.45349	-251.82349	1523.79350	-568.07694	-71.00079	1499.45727	-742.04549	-253.50928	1522.35932	-677.97485	-101.83082	2057.98848	-639.05073	-51.63253	2010.10115	-477.47736	-70.06582	1990.76754	-798.19282	14.66430	1959.56113	-606.86242	11.97584	1952.42367	-664.76871	-15.83897	1917.06942	-357.70888	7.33162	1712.97279	-277.96767	-10.84530	1781.48665	-219.68502	140.40988	1851.27851	-245.85707	206.97439	1898.32673	-289.50014	220.77310	1873.50603	-253.57155	-75.69563	1903.19655	-906.13368	-18.00296	1663.37744	-954.71029	-12.96519	1723.58680	-1019.71732	61.86123	1746.65038	-1013.63039	227.42558	1773.06916	-967.16787	237.35930	1744.68167	-995.61465	-157.80148	1391.69002	-513.70885	-158.29669	1393.38635	-720.66180	-134.10147	1425.06910	-528.07407	-136.59917	1422.94411	-690.86859	
175	1.74000000	-112.33318	983.25165	-434.09618	-79.42186	884.52168	-436.08363	-187.70937	558.24375	-448.19738	-269.91023	572.32798	-505.63401	-147.65696	414.67147	-421.32406	-72.81552	412.52113	-471.09998	-78.65444	982.52276	-812.91673	-75.67889	894.96318	-835.42050	-147.12171	564.82639	-786.20825	-232.63212	580.64136	-728.91901	-110.74838	423.97767	-803.12230	-45.37910	411.37201	-741.80235	-111.22221	779.22453	-407.75293	-140.58930	914.17285	-399.88991	-187.77751	807.12513	-393.20337	-164.66629	910.56727	-825.93571	-172.22469	788.82106	-821.88586	-80.60048	1311.31516	-428.25887	-62.30938	1203.88101	-430.69644	-111.34163	1169.11929	-402.96741	-190.36019	1287.76559	-429.72106	-163.05607	1175.81653	-424.02303	-54.12041	1278.03723	-815.06439	-20.89264	1141.81422	-809.33576	-159.72219	1251.52953	-832.58492	-132.35077	1117.21328	-826.31449	-73.91609	1517.48861	-495.53322	-250.00181	1535.97056	-568.09130	-69.14151	1511.74539	-741.49123	-251.47288	1534.90708	-678.29025	-100.18842	2069.97479	-639.06715	-50.75842	2021.55148	-477.18965	-69.38748	2002.96504	-798.26035	15.96413	1971.58670	-606.87857	13.27633	1964.45788	-664.92223	-17.03928	1924.86407	-359.01756	-0.58527	1718.48029	-283.67140	-17.12194	1785.89291	-223.84466	135.52844	1852.93819	-247.76527	203.25616	1899.60286	-289.91626	216.57769	1873.44532	-254.57529	-77.60796	1913.09059	-905.09228	-28.65613	1670.87585	-951.21048	-22.12113	1730.03442	-1017.50153	54.07646	1749.30182	-1012.50848	221.81296	1767.45071	-969.67967	229.66497	1738.31990	-998.06240	-156.31682	1403.75867	-513.85427	-156.44884	1405.78069	-720.80515	-132.46459	1437.06018	-528.43455	-134.63261	1435.49227	-690.81947	
176	1.75000000	-110.88147	993.51316	-435.33804	-77.81279	895.20106	-436.50245	-186.52889	568.67269	-448.15739	-269.43584	582.11396	-504.55399	-145.19275	425.43486	-421.53305	-70.64901	424.12987	-471.72977	-76.99595	993.22933	-812.98234	-74.23480	905.30001	-835.94314	-142.39529	574.93443	-787.09377	-228.20560	588.44809	-728.96054	-103.39408	434.87455	-804.79503	-37.40357	423.31537	-743.93253	-109.49202	789.99340	-407.88549	-138.20350	925.01245	-399.56770	-186.01190	817.80361	-393.14344	-163.30758	920.14412	-826.39347	-169.92633	798.24053	-822.28131	-76.59374	1321.97236	-429.82596	-58.68409	1214.42418	-432.70657	-107.49100	1179.87655	-403.70150	-186.43065	1298.87424	-428.79081	-159.68778	1186.84221	-423.41249	-50.58184	1288.98094	-813.39004	-18.30081	1152.48294	-807.72212	-156.06517	1263.21437	-832.68215	-129.47025	1128.70463	-827.30152	-72.12276	1528.53629	-495.65016	-248.01557	1547.40693	-567.88874	-67.21626	1522.89065	-741.15665	-249.30438	1546.74145	-678.31223	-98.57039	2080.97026	-638.97361	-49.84793	2031.78378	-476.96010	-68.65575	2014.22537	-798.26753	17.20129	1982.53025	-606.75833	14.55068	1975.41234	-664.96547	-18.38721	1931.66884	-360.19262	-8.27184	1723.47719	-289.51911	-23.27851	1789.68873	-228.03661	130.79997	1853.93302	-249.68887	199.63326	1900.18204	-290.28058	212.46431	1872.67740	-255.52419	-79.19876	1922.22389	-903.54742	-39.24456	1677.97289	-947.58231	-31.10543	1736.04957	-1015.24530	46.27673	1751.28328	-1011.25703	215.65806	1761.10293	-971.89502	221.39438	1731.29934	-1000.21744	-154.78093	1415.00571	-513.87109	-154.79344	1417.23091	-720.81995	-130.76432	1448.00490	-528.85983	-132.65567	1447.02840	-690.95544	
177	1.76000000	-110.11698	1003.46136	-435.87554	-76.66397	904.96959	-436.53118	-185.17900	578.38425	-447.51954	-268.65724	590.65717	-503.69252	-142.45586	435.33513	-421.25404	-68.04773	434.81889	-471.87107	-75.73219	1002.69886	-813.10427	-73.52342	914.57620	-836.81353	-137.74913	583.74454	-787.71703	-223.64253	594.94660	-728.48427	-95.99577	444.72795	-806.42469	-29.16165	434.21880	-746.53257	-108.38935	799.63541	-407.95687	-136.75846	934.54104	-399.58188	-185.45701	827.36416	-392.86010	-162.75096	928.44308	-826.82509	-168.08063	806.39826	-822.58746	-72.60431	1331.67426	-431.76985	-55.28002	1223.91307	-434.73871	-103.67453	1189.78683	-404.48095	-182.41665	1309.08740	-427.67571	-156.35675	1196.94146	-422.74772	-46.97875	1298.90981	-811.40643	-15.65710	1162.16891	-806.13050	-152.14311	1273.91111	-833.33659	-126.34397	1139.13823	-828.63075	-70.19676	1538.50900	-495.99483	-245.88464	1558.09109	-567.72786	-65.26805	1532.84750	-741.22403	-246.99233	1557.76665	-678.27230	-97.09469	2090.96048	-638.84708	-48.87742	2040.87465	-476.80409	-67.70324	2024.36766	-798.30961	18.31505	1992.40414	-606.62418	15.78371	1985.35660	-665.05397	-19.76046	1937.60356	-361.13260	-15.46644	1727.93338	-295.73480	-29.22029	1792.79526	-232.25410	126.24598	1854.16258	-251.60390	196.09998	1900.17237	-290.50331	208.31991	1871.33642	-256.55969	-80.27486	1930.84398	-902.31158	-49.62079	1684.69802	-943.77969	-39.86911	1741.29553	-1012.57001	38.36912	1752.58681	-1009.94047	208.89233	1754.07057	-973.90386	212.54397	1723.70168	-1002.04906	-153.26254	1425.32729	-514.00300	-153.36785	1427.68404	-720.95022	-129.14154	1457.94469	-529.49741	-130.76386	1457.46944	-691.41562	
178	1.77000000	-109.80386	1012.75154	-435.48826	-76.02944	913.61432	-436.52782	-183.69538	587.05795	-446.75012	-267.58750	598.08649	-503.08966	-139.56311	444.30122	-420.68443	-65.24778	444.43989	-471.58804	-74.69970	1010.95154	-813.40936	-73.28397	922.87176	-837.92912	-133.05211	591.40863	-788.27548	-218.76396	600.47046	-728.04272	-88.60205	453.56054	-808.09563	-20.99077	444.06007	-749.14521	-107.58797	808.20610	-407.96132	-136.21457	943.35482	-399.62779	-184.91994	835.87499	-392.38732	-162.66876	935.53518	-827.00116	-166.34873	813.55197	-822.90050	-68.95056	1340.33597	-433.88034	-52.28314	1232.43790	-436.62747	-100.07946	1198.83785	-405.03470	-178.80275	1318.45005	-426.57491	-153.18003	1206.02379	-422.03682	-43.51284	1307.89109	-809.77670	-13.12275	1170.82665	-804.72117	-148.27983	1283.42275	-834.75499	-123.16544	1148.49037	-830.38421	-68.14005	1547.41801	-496.67095	-243.65006	1567.94334	-567.67405	-63.25721	1541.67958	-741.43849	-244.60053	1567.74340	-678.37881	-95.70739	2099.82145	-638.66625	-47.80607	2048.97357	-476.67992	-66.56113	2033.43903	-798.45595	19.35663	2001.24486	-606.65527	16.99019	1994.32253	-665.18873	-21.14459	1942.78522	-361.86185	-22.02692	1731.68224	-301.77772	-34.96754	1795.19341	-236.53708	121.81177	1853.67898	-253.52923	192.62387	1899.57140	-290.65482	204.15921	1869.57530	-257.61378	-80.81606	1938.85959	-901.81155	-59.66474	1690.94784	-939.89566	-48.45945	1745.80529	-1009.51280	30.36299	1753.23192	-1008.65295	201.54454	1746.36252	-975.76577	203.11574	1715.50899	-1003.45746	-151.70624	1434.68354	-514.25965	-151.99537	1437.07106	-721.20648	-127.56326	1467.15311	-530.26922	-128.95130	1466.86143	-691.88592	
179	1.78000000	-108.92181	1021.10912	-434.92947	-75.67696	921.20244	-436.70403	-182.02254	594.39714	-446.45485	-266.21800	604.50114	-502.70427	-136.54291	452.26421	-419.84844	-62.36934	452.89846	-470.96553	-73.89466	1018.13521	-813.78626	-73.27111	930.07356	-838.86867	-128.21613	598.12664	-788.97933	-213.44108	605.25715	-728.16833	-81.31135	461.34525	-809.96553	-13.02051	452.75190	-751.67154	-106.75032	815.85911	-407.78217	-135.78743	950.90579	-399.84390	-183.63126	843.30321	-392.43140	-162.71470	941.58702	-826.82205	-164.64556	819.67016	-822.94731	-65.79841	1347.99304	-435.81272	-49.64279	1240.08205	-438.39077	-96.90451	1206.94469	-405.37094	-175.71413	1326.88811	-425.60896	-150.32554	1214.15211	-421.29259	-40.45897	1315.79022	-808.63882	-10.83768	1178.34108	-803.46907	-144.76459	1291.64828	-836.54373	-120.15291	1156.70270	-832.40700	-66.02221	1555.32039	-497.58429	-241.36562	1576.84081	-567.64218	-61.22332	1549.55222	-741.67341	-242.28130	1576.46004	-678.49657	-94.30532	2107.59439	-638.38949	-46.62734	2056.08633	-476.41414	-65.38121	2041.43975	-798.77955	20.42449	2009.08661	-606.70971	18.19350	2002.25992	-665.35435	-22.53379	1947.17745	-362.41715	-28.02122	1734.63980	-307.09257	-40.62340	1796.92805	-240.78712	117.37759	1852.72551	-255.35118	189.18423	1898.38114	-290.85043	199.98074	1867.52050	-258.40918	-81.18824	1945.82967	-901.40790	-69.38639	1696.60063	-935.94493	-56.87223	1749.76706	-1006.43995	22.31174	1753.19349	-1007.30398	193.71852	1737.99311	-977.36794	193.14419	1706.73088	-1004.51574	-149.99689	1443.02977	-514.55570	-150.57022	1445.39116	-721.50221	-125.95499	1475.78117	-530.96086	-127.28616	1475.22854	-692.12894	
180	1.79000000	-107.21006	1028.17942	-434.87124	-75.24735	927.95423	-436.85117	-180.13301	600.63068	-446.30722	-264.51664	609.95080	-502.47498	-133.52279	459.20127	-418.65470	-59.48353	460.15197	-469.84926	-73.43392	1024.36609	-814.12234	-73.30768	936.20102	-839.33691	-123.20418	603.86085	-789.85918	-207.84218	609.45448	-728.89762	-74.24185	467.97745	-811.89786	-5.45959	460.08239	-754.05231	-105.88986	822.57384	-407.59258	-135.42926	957.12974	-400.26502	-182.46797	849.76702	-392.77939	-162.69538	946.72013	-826.42856	-162.97918	824.64620	-822.58004	-63.15047	1354.67383	-437.41002	-47.30860	1246.78292	-439.93416	-94.22034	1214.04157	-405.60025	-173.03675	1334.17135	-424.85236	-147.85318	1221.32938	-420.53682	-38.01767	1322.35067	-807.66713	-8.99042	1184.65853	-802.43196	-141.78969	1298.59412	-838.09059	-117.59904	1163.60681	-834.20564	-63.95341	1562.23120	-498.59686	-239.11295	1584.56010	-567.67828	-59.26533	1556.56223	-742.18123	-240.08252	1583.93608	-678.48343	-92.88395	2114.53506	-638.05621	-45.38781	2062.12130	-475.97763	-64.10949	2048.26845	-799.19001	21.55931	2015.90546	-606.56482	19.47132	2009.10465	-665.52858	-23.89516	1950.62945	-362.89056	-33.63240	1736.96838	-312.07079	-46.19284	1798.04569	-244.85528	112.91025	1851.51729	-256.91548	185.76737	1896.71140	-291.11714	195.73820	1865.19750	-258.91543	-81.73424	1951.61592	-900.71600	-78.67173	1701.61320	-931.84525	-65.02390	1753.12271	-1003.38702	14.25669	1752.56026	-1005.82311	185.48539	1729.02582	-978.61355	182.73656	1697.47860	-1005.44685	-148.09228	1450.27252	-514.97764	-149.09602	1452.68879	-721.92164	-124.27494	1483.43420	-531.68847	-125.68210	1482.52821	-692.51875	
